<svg width="19" height="18" viewBox="0 0 19 18" fill="none" xmlns="http://www.w3.org/2000/svg">
<path d="M17.9668 9.6875H10.0977L15.3438 14.9668C15.543 15.166 15.875 15.166 16.0742 14.9668C17.3691 13.7715 18.2656 12.1445 18.498 10.2852C18.5645 9.98633 18.2988 9.6875 17.9668 9.6875ZM17.4355 7.5625C17.1699 3.57812 14.0156 0.423828 10.0312 0.158203C9.73242 0.125 9.5 0.390625 9.5 0.689453V8.09375H16.9043C17.2031 8.09375 17.4688 7.86133 17.4355 7.5625ZM7.90625 9.6875V1.81836C7.90625 1.51953 7.60742 1.25391 7.30859 1.28711C3.32422 1.85156 0.302734 5.30469 0.46875 9.45508C0.601562 13.7051 4.25391 17.1914 8.53711 17.125C10.1973 17.125 11.7578 16.5938 13.0195 15.6641C13.2852 15.498 13.2852 15.0996 13.0527 14.8672L7.90625 9.6875Z" fill="#1D1D1D"/>
</svg>
