<svg width="21" height="19" viewBox="0 0 21 19" fill="none" xmlns="http://www.w3.org/2000/svg">
<path d="M20.625 8.6875C20.625 7.87891 20.168 7.14062 19.5 6.75391V1.41016C19.5 1.09375 19.2539 0.25 18.375 0.25C18.0938 0.25 17.8477 0.355469 17.6719 0.53125L14.6484 2.92188C13.1719 4.11719 11.2734 4.75 9.375 4.75H2.625C1.35938 4.75 0.375 5.76953 0.375 7V10.375C0.375 11.6406 1.35938 12.625 2.625 12.625H3.78516C3.75 13.0117 3.71484 13.3984 3.71484 13.75C3.71484 15.1562 4.03125 16.4922 4.62891 17.6523C4.80469 18.0391 5.19141 18.25 5.61328 18.25H8.21484C9.12891 18.25 9.69141 17.2305 9.12891 16.4922C8.56641 15.7188 8.21484 14.8047 8.21484 13.75C8.21484 13.3633 8.28516 13.0117 8.35547 12.625H9.375C11.2734 12.625 13.1719 13.293 14.6484 14.4883L17.6719 16.8789C17.8125 17.0195 18.1289 17.125 18.3398 17.125C19.2188 17.125 19.4648 16.3516 19.4648 16V10.6562C20.168 10.2695 20.625 9.53125 20.625 8.6875ZM17.25 13.6797L16.0547 12.7305C14.1562 11.2188 11.8008 10.375 9.375 10.375V7C11.8008 7 14.1562 6.19141 16.0547 4.67969L17.25 3.73047V13.6797Z" fill="#1D1D1D"/>
</svg>
