<svg width="18" height="14" viewBox="0 0 18 14" fill="none" xmlns="http://www.w3.org/2000/svg">
<path d="M16.3125 2.75H9.5625L7.3125 0.5H1.6875C0.738281 0.5 0 1.27344 0 2.1875V12.3125C0 13.2617 0.738281 14 1.6875 14H16.3125C17.2266 14 18 13.2617 18 12.3125V4.4375C18 3.52344 17.2266 2.75 16.3125 2.75ZM12.6211 8.65625C12.6211 8.97266 12.375 9.21875 12.0586 9.21875H9.80859V11.4688C9.80859 11.7852 9.5625 12.0312 9.24609 12.0312H8.68359C8.36719 12.0312 8.12109 11.7852 8.12109 11.4688V9.21875H5.87109C5.55469 9.21875 5.30859 8.97266 5.30859 8.65625V8.09375C5.30859 7.8125 5.55469 7.53125 5.87109 7.53125H8.12109V5.28125C8.12109 5 8.36719 4.71875 8.68359 4.71875H9.24609C9.5625 4.71875 9.80859 5 9.80859 5.28125V7.53125H12.0586C12.375 7.53125 12.6211 7.8125 12.6211 8.09375V8.65625Z" fill="#1D1D1D"/>
</svg>
