<svg width="19" height="19" viewBox="0 0 19 19" fill="none" xmlns="http://www.w3.org/2000/svg">
<path d="M8.17188 0.425781C4.65625 1.12891 1.84375 3.94141 1.17578 7.42188C-0.125 13.9961 5.78125 18.8828 10.2812 18.2148C11.7227 17.9688 12.4258 16.2812 11.7578 14.9805C10.9492 13.3633 12.1094 11.5 13.9023 11.5H16.7148C17.9453 11.5 18.9648 10.4805 19 9.21484C18.9648 3.69531 13.9375 -0.664062 8.17188 0.425781ZM4.375 11.5C3.74219 11.5 3.25 11.0078 3.25 10.375C3.25 9.77734 3.74219 9.25 4.375 9.25C4.97266 9.25 5.5 9.77734 5.5 10.375C5.5 11.0078 4.97266 11.5 4.375 11.5ZM5.5 7C4.86719 7 4.375 6.50781 4.375 5.875C4.375 5.27734 4.86719 4.75 5.5 4.75C6.09766 4.75 6.625 5.27734 6.625 5.875C6.625 6.50781 6.09766 7 5.5 7ZM10 4.75C9.36719 4.75 8.875 4.25781 8.875 3.625C8.875 3.02734 9.36719 2.5 10 2.5C10.5977 2.5 11.125 3.02734 11.125 3.625C11.125 4.25781 10.5977 4.75 10 4.75ZM14.5 7C13.8672 7 13.375 6.50781 13.375 5.875C13.375 5.27734 13.8672 4.75 14.5 4.75C15.0977 4.75 15.625 5.27734 15.625 5.875C15.625 6.50781 15.0977 7 14.5 7Z" fill="#1D1D1D"/>
</svg>
