<svg width="18" height="19" viewBox="0 0 18 19" fill="none" xmlns="http://www.w3.org/2000/svg">
<path d="M18 9.25C18 7.94922 17.1562 6.82422 15.9609 6.36719C16.4883 5.24219 16.2773 3.83594 15.3633 2.88672C14.4141 1.97266 13.0078 1.76172 11.8828 2.28906C11.4258 1.09375 10.3008 0.25 9 0.25C7.66406 0.25 6.53906 1.09375 6.08203 2.28906C4.95703 1.76172 3.55078 1.97266 2.63672 2.88672C1.6875 3.83594 1.47656 5.24219 2.00391 6.36719C0.808594 6.82422 0 7.94922 0 9.25C0 10.5859 0.808594 11.7109 2.00391 12.168C1.47656 13.293 1.6875 14.6992 2.63672 15.6133C3.55078 16.5625 4.95703 16.7734 6.08203 16.2461C6.53906 17.4414 7.66406 18.25 9 18.25C10.3008 18.25 11.4258 17.4414 11.8828 16.2461C13.043 16.7734 14.4141 16.5625 15.3633 15.6133C16.2773 14.6992 16.4883 13.293 15.9609 12.168C17.1562 11.7109 18 10.5859 18 9.25ZM6.75 5.875C7.34766 5.875 7.875 6.40234 7.875 7C7.875 7.63281 7.34766 8.125 6.75 8.125C6.11719 8.125 5.625 7.63281 5.625 7C5.625 6.40234 6.11719 5.875 6.75 5.875ZM7.17188 12.2734C6.96094 12.4844 6.57422 12.4844 6.36328 12.2734L5.97656 11.8867C5.76562 11.6758 5.76562 11.2891 5.97656 11.0781L10.793 6.26172C11.0039 6.05078 11.3906 6.05078 11.6016 6.26172L11.9883 6.64844C12.1992 6.85938 12.1992 7.24609 11.9883 7.45703L7.17188 12.2734ZM11.25 12.625C10.6172 12.625 10.125 12.1328 10.125 11.5C10.125 10.9023 10.6172 10.375 11.25 10.375C11.8477 10.375 12.375 10.9023 12.375 11.5C12.375 12.1328 11.8477 12.625 11.25 12.625Z" fill="#1D1D1D"/>
</svg>
