<svg width="19" height="19" viewBox="0 0 19 19" fill="none" xmlns="http://www.w3.org/2000/svg">
<path d="M18.8242 4.11719C18.7539 3.80078 18.3672 3.69531 18.1211 3.90625L15.5195 6.50781L13.1289 6.12109L12.7422 3.73047L15.3438 1.12891C15.5898 0.882812 15.4492 0.496094 15.1328 0.425781C13.4805 0.00390625 11.6523 0.460938 10.3516 1.76172C8.94531 3.13281 8.55859 5.17188 9.15625 6.92969L1.63281 14.418C0.753906 15.2969 0.753906 16.7383 1.63281 17.6172C2.51172 18.4961 3.95312 18.4961 4.83203 17.6172L12.3203 10.1289C14.0781 10.6914 16.082 10.3047 17.4883 8.89844C18.7891 7.59766 19.2461 5.76953 18.8242 4.11719ZM3.25 16.8438C2.75781 16.8438 2.40625 16.4922 2.40625 16C2.40625 15.543 2.75781 15.1562 3.25 15.1562C3.70703 15.1562 4.09375 15.543 4.09375 16C4.09375 16.4922 3.70703 16.8438 3.25 16.8438Z" fill="#1D1D1D"/>
</svg>
