<svg width="23" height="17" viewBox="0 0 23 17" fill="none" xmlns="http://www.w3.org/2000/svg">
<path d="M7 8.25C9.14453 8.25 10.9375 6.49219 10.9375 4.3125C10.9375 2.16797 9.14453 0.375 7 0.375C4.82031 0.375 3.0625 2.16797 3.0625 4.3125C3.0625 6.49219 4.82031 8.25 7 8.25ZM9.67188 9.375H9.39062C8.65234 9.72656 7.84375 9.9375 7 9.9375C6.12109 9.9375 5.3125 9.72656 4.57422 9.375H4.29297C2.04297 9.375 0.25 11.2031 0.25 13.4531V14.4375C0.25 15.3867 0.988281 16.125 1.9375 16.125H12.0625C12.9766 16.125 13.75 15.3867 13.75 14.4375V13.4531C13.75 11.2031 11.9219 9.375 9.67188 9.375ZM17.125 8.25C18.9883 8.25 20.5 6.73828 20.5 4.875C20.5 3.01172 18.9883 1.5 17.125 1.5C15.2617 1.5 13.75 3.01172 13.75 4.875C13.75 6.73828 15.2617 8.25 17.125 8.25ZM18.8125 9.375H18.6719C18.1797 9.55078 17.6523 9.65625 17.125 9.65625C16.5625 9.65625 16.0352 9.55078 15.543 9.375H15.4375C14.6992 9.375 14.0312 9.58594 13.4688 9.9375C14.3125 10.8516 14.875 12.082 14.875 13.4531V14.7891C14.875 14.8594 14.8398 14.9297 14.8398 15H21.0625C21.9766 15 22.75 14.2617 22.75 13.3125C22.75 11.168 20.957 9.375 18.8125 9.375Z" fill="#1D1D1D"/>
</svg>
