<svg width="16" height="16" viewBox="0 0 16 16" fill="none" xmlns="http://www.w3.org/2000/svg">
<path d="M13.4688 2.53125C14.9896 4.03125 15.75 5.85417 15.75 8C15.75 10.1458 14.9896 11.9792 13.4688 13.5C11.9688 15 10.1458 15.75 8 15.75C5.85417 15.75 4.02083 15 2.5 13.5C1 11.9792 0.25 10.1458 0.25 8C0.25 5.85417 1 4.03125 2.5 2.53125C4.02083 1.01042 5.85417 0.25 8 0.25C10.1458 0.25 11.9688 1.01042 13.4688 2.53125ZM8.21875 2.8125C6.67708 2.8125 5.45833 3.47917 4.5625 4.8125C4.4375 5 4.46875 5.16667 4.65625 5.3125L5.75 6.125C5.9375 6.27083 6.10417 6.25 6.25 6.0625C6.47917 5.79167 6.65625 5.59375 6.78125 5.46875C6.92708 5.32292 7.10417 5.19792 7.3125 5.09375C7.52083 4.98958 7.76042 4.9375 8.03125 4.9375C8.38542 4.9375 8.70833 5.04167 9 5.25C9.3125 5.4375 9.46875 5.67708 9.46875 5.96875C9.46875 6.19792 9.38542 6.38542 9.21875 6.53125C9.07292 6.65625 8.82292 6.82292 8.46875 7.03125C8.09375 7.23958 7.8125 7.40625 7.625 7.53125C7.45833 7.65625 7.27083 7.875 7.0625 8.1875C6.85417 8.5 6.75 8.85417 6.75 9.25V9.375C6.75 9.625 6.875 9.75 7.125 9.75H8.875C9.125 9.75 9.25 9.625 9.25 9.375V9.34375C9.25 9.15625 9.38542 8.96875 9.65625 8.78125C9.92708 8.59375 10.2188 8.41667 10.5312 8.25C10.8646 8.08333 11.1667 7.80208 11.4375 7.40625C11.7083 7.01042 11.8438 6.54167 11.8438 6C11.8438 5.125 11.4688 4.375 10.7188 3.75C9.96875 3.125 9.13542 2.8125 8.21875 2.8125ZM9 11C8.72917 10.7083 8.39583 10.5625 8 10.5625C7.60417 10.5625 7.26042 10.7083 6.96875 11C6.69792 11.2708 6.5625 11.6042 6.5625 12C6.5625 12.3958 6.69792 12.7396 6.96875 13.0312C7.26042 13.3021 7.60417 13.4375 8 13.4375C8.39583 13.4375 8.72917 13.3021 9 13.0312C9.29167 12.7396 9.4375 12.3958 9.4375 12C9.4375 11.6042 9.29167 11.2708 9 11Z" fill="#3886F3"/>
</svg>
