<svg width="35" height="35" viewBox="0 0 35 35" fill="none" xmlns="http://www.w3.org/2000/svg">
<circle cx="17.5" cy="17.5" r="17.5" fill="#EBEBEB"/>
<path d="M17.625 17.5625C19.1777 17.5625 20.4375 16.332 20.4375 14.75V14.2812H14.8125V14.75C14.8125 16.332 16.043 17.5625 17.625 17.5625ZM19.8516 18.5H19.6172C19.002 18.793 18.3281 18.9688 17.625 18.9688C16.8926 18.9688 16.2188 18.793 15.6035 18.5H15.3691C13.4941 18.5 12 20.0234 12 21.8984V22.7188C12 23.5098 12.6152 24.125 13.4062 24.125H21.8438C22.6055 24.125 23.25 23.5098 23.25 22.7188V21.8984C23.25 20.0234 21.7266 18.5 19.8516 18.5Z" fill="#91C1F8"/>
<path d="M20.4375 13.8438C20.4375 12.2617 19.1777 11.0312 17.625 11.0312C16.043 11.0312 14.8125 12.2617 14.8125 13.8438V14.3125H20.4375V13.8438Z" fill="#91C1F8"/>
</svg>
