<svg width="14" height="14" viewBox="0 0 14 14" fill="none" xmlns="http://www.w3.org/2000/svg">
<path opacity="0.6" d="M12.625 5.96875H8.40625V1.75C8.40625 1.25195 7.9668 0.8125 7.46875 0.8125H6.53125C6.00391 0.8125 5.59375 1.25195 5.59375 1.75V5.96875H1.375C0.847656 5.96875 0.4375 6.4082 0.4375 6.90625V7.84375C0.4375 8.37109 0.847656 8.78125 1.375 8.78125H5.59375V13C5.59375 13.5273 6.00391 13.9375 6.53125 13.9375H7.46875C7.9668 13.9375 8.40625 13.5273 8.40625 13V8.78125H12.625C13.123 8.78125 13.5625 8.37109 13.5625 7.84375V6.90625C13.5625 6.4082 13.123 5.96875 12.625 5.96875Z" fill="#3886F3"/>
</svg>
