<svg width="48" height="48" viewBox="0 0 48 48" fill="none" xmlns="http://www.w3.org/2000/svg">
<g filter="url(#filter0_d)">
<circle cx="24" cy="24" r="20" fill="#C4C4C4"/>
<circle cx="24" cy="24" r="18" stroke="white" stroke-width="4"/>
</g>
<path d="M23.0654 26.8076C23.0752 26.2266 23.1411 25.7676 23.2632 25.4307C23.3853 25.0938 23.6343 24.7202 24.0103 24.3101L24.9697 23.3213C25.3799 22.8574 25.585 22.3594 25.585 21.8271C25.585 21.3145 25.4507 20.9141 25.1821 20.626C24.9136 20.333 24.5229 20.1865 24.0103 20.1865C23.5122 20.1865 23.1118 20.3184 22.8091 20.582C22.5063 20.8457 22.355 21.1997 22.355 21.644H21C21.0098 20.853 21.2905 20.2158 21.8423 19.7324C22.3989 19.2441 23.1216 19 24.0103 19C24.9331 19 25.6509 19.249 26.1636 19.7471C26.6812 20.2402 26.9399 20.9189 26.9399 21.7832C26.9399 22.6377 26.5444 23.48 25.7534 24.3101L24.9551 25.1011C24.5986 25.4966 24.4204 26.0654 24.4204 26.8076H23.0654ZM23.0068 29.1294C23.0068 28.9097 23.0728 28.7266 23.2046 28.5801C23.3413 28.4287 23.5415 28.353 23.8052 28.353C24.0688 28.353 24.269 28.4287 24.4058 28.5801C24.5425 28.7266 24.6108 28.9097 24.6108 29.1294C24.6108 29.3491 24.5425 29.5322 24.4058 29.6787C24.269 29.8203 24.0688 29.8911 23.8052 29.8911C23.5415 29.8911 23.3413 29.8203 23.2046 29.6787C23.0728 29.5322 23.0068 29.3491 23.0068 29.1294Z" fill="white"/>
<defs>
<filter id="filter0_d" x="0" y="0" width="48" height="48" filterUnits="userSpaceOnUse" color-interpolation-filters="sRGB">
<feFlood flood-opacity="0" result="BackgroundImageFix"/>
<feColorMatrix in="SourceAlpha" type="matrix" values="0 0 0 0 0 0 0 0 0 0 0 0 0 0 0 0 0 0 127 0"/>
<feOffset/>
<feGaussianBlur stdDeviation="2"/>
<feColorMatrix type="matrix" values="0 0 0 0 0 0 0 0 0 0 0 0 0 0 0 0 0 0 0.1 0"/>
<feBlend mode="normal" in2="BackgroundImageFix" result="effect1_dropShadow"/>
<feBlend mode="normal" in="SourceGraphic" in2="effect1_dropShadow" result="shape"/>
</filter>
</defs>
</svg>
