<svg width="146" height="146" viewBox="0 0 146 146" fill="none" xmlns="http://www.w3.org/2000/svg">
<g clip-path="url(#clip0)">
<path d="M73.002 45.6241C67.9715 45.6241 63.877 49.7187 63.877 54.7492V63.8743H82.1271V54.7492C82.1271 49.7187 78.0325 45.6241 73.002 45.6241Z" fill="#EBEBEB"/>
<path d="M131.696 0.896811C128.527 -0.622513 124.776 -0.185935 122.031 2.0152C110.629 11.1805 90.1069 11.1759 78.7228 2.01977C75.3811 -0.67156 70.6226 -0.666998 67.2808 2.0152C55.8842 11.1802 35.3528 11.1756 23.973 2.01948C21.2323 -0.185935 17.4685 -0.622798 14.3126 0.896526C11.146 2.41157 9.12761 5.61504 9.12761 9.1262L9.12305 82.1268C9.12305 110.727 32.0515 134.469 70.4532 145.639C71.2865 145.88 72.1419 146 73.0023 146C73.8617 146 74.7178 145.88 75.551 145.639C113.953 134.469 136.877 110.732 136.877 82.1268V9.1262C136.877 5.61504 134.863 2.41157 131.696 0.896811ZM100.377 91.2496C100.377 96.2912 96.292 100.375 91.2521 100.375H54.7518C49.7119 100.375 45.6268 96.2912 45.6268 91.2496V72.9994C45.6268 67.9601 49.7119 63.8743 54.7518 63.8743V54.7493C54.7518 44.6886 62.9367 36.4991 73.002 36.4991C83.0672 36.4991 91.2521 44.6886 91.2521 54.7493V63.8743C96.292 63.8743 100.377 67.9601 100.377 72.9994V91.2496Z" fill="#EBEBEB"/>
<path d="M73.002 77.5619C70.4823 77.5619 68.4395 79.6048 68.4395 82.1244C68.4395 84.6464 70.4823 86.687 73.002 86.687C75.5217 86.687 77.5645 84.6464 77.5645 82.1244C77.5645 79.6048 75.5217 77.5619 73.002 77.5619Z" fill="#EBEBEB"/>
</g>
<defs>
<clipPath id="clip0">
<rect width="146" height="146" fill="white"/>
</clipPath>
</defs>
</svg>
